<svg xmlns="http://www.w3.org/2000/svg" width="16" height="16"><g fill-opacity=".957"><path d="M8 2.163c-.295 0-.59.076-.854.228L3.569 4.456c-.526.304-.854.87-.854 1.479V10.093l2.589-1.51c.049-.03.098-.057.147-.082a2.877 2.877 0 0 1 1.327-2.822 2.868 2.868 0 0 1 2.408-.293.248.248 0 0 1 .055.447L7.565 6.877l.128 1.618 1.397.828 1.675-1.044a.248.248 0 0 1 .377.245 2.869 2.869 0 0 1-1.324 2.033 2.877 2.877 0 0 1-3.12-.052 1.647 1.647 0 0 1-.136.096l-2.131 1.44 2.715 1.568a1.713 1.713 0 0 0 1.708 0l3.577-2.065c.526-.304.853-.87.853-1.479v-4.13c0-.608-.327-1.175-.853-1.48L8.854 2.392A1.708 1.708 0 0 0 8 2.163z" fill="#0090f4"/><path d="M8.317 5.245H8.26h.07-.012zm.03 0zm.234.014zm.234.033zm.231.053zm.07.02c.024.006.047.014.07.021a2.91 2.91 0 0 0-.07-.022zm.09.029zm.016.007zm.015.008zm.014.009zm.014.01zm.015.013a.245.245 0 0 1 .037.045l.003.004a.245.245 0 0 1 .014.026v.001a.249.249 0 0 1 .024.117v.005a.248.248 0 0 1-.003.024v.003a.249.249 0 0 1-.073.134.248.248 0 0 1-.023.02l-.004.004a.25.25 0 0 1-.014.009l-.243.151-1.433.893.128 1.618 1.396.828.568-.354 1.108-.69a.248.248 0 0 1 .288.018l.002.002.015.014.003.002a.24.24 0 0 1 .015.017l.001.002.002.002a.257.257 0 0 1 .041.077v.002a.247.247 0 0 1 .01.041v.003a.244.244 0 0 1 .002.02v.024a2.9 2.9 0 0 1-1.031 1.842 2.91 2.91 0 0 1-.21.157l-.021.014a2.935 2.935 0 0 1-.064.041 2.904 2.904 0 0 1-.676.309 2.89 2.89 0 0 1-1.166.107 2.899 2.899 0 0 1-.3-.05v-.001a2.895 2.895 0 0 1-.622-.215 2.884 2.884 0 0 1-.225-.12 2.863 2.863 0 0 1-.13-.082 1.708 1.708 0 0 1-.137.096l-2.131 1.44 2.715 1.568a1.713 1.713 0 0 0 1.708 0l.454-.262.148-.085 1.944-1.123.32-.185.71-.41a1.69 1.69 0 0 0 .044-.026l.01-.006.042-.027.005-.004.037-.025.01-.007.038-.03.009-.006.03-.024.011-.01.035-.029.01-.01c.01-.008.02-.016.028-.025l.01-.009.032-.03.014-.015.02-.021.013-.013a1.713 1.713 0 0 0 .082-.096l.014-.018a1.71 1.71 0 0 0 .015-.02l.014-.018a1.72 1.72 0 0 0 .025-.035l.01-.015.015-.022.009-.013a1.718 1.718 0 0 0 .081-.142l.003-.005c.015-.03.03-.06.043-.09l.004-.01a1.71 1.71 0 0 0 .075-.21c.006-.017.01-.034.014-.051v-.001a1.7 1.7 0 0 0 .046-.268v-.005a1.72 1.72 0 0 0 .003-.042l.001-.018.002-.03v-.672l-3.999-4-.005-.005z" fill="#0074f4"/></g></svg>